<svg width="20" height="20" viewBox="0 0 20 20" fill="none" xmlns="http://www.w3.org/2000/svg">
  <path fill-rule="evenodd" clip-rule="evenodd"
    d="M17.5001 3.125C17.5001 2.95924 17.4342 2.80027 17.317 2.68306C17.1998 2.56585 17.0408 2.5 16.8751 2.5H9.37506C9.2093 2.5 9.05033 2.56585 8.93312 2.68306C8.81591 2.80027 8.75006 2.95924 8.75006 3.125C8.75006 3.29076 8.81591 3.44973 8.93312 3.56694C9.05033 3.68415 9.2093 3.75 9.37506 3.75H15.3663L2.68256 16.4325C2.62445 16.4906 2.57835 16.5596 2.5469 16.6355C2.51545 16.7114 2.49927 16.7928 2.49927 16.875C2.49927 16.9572 2.51545 17.0386 2.5469 17.1145C2.57835 17.1904 2.62445 17.2594 2.68256 17.3175C2.74067 17.3756 2.80965 17.4217 2.88558 17.4532C2.9615 17.4846 3.04288 17.5008 3.12506 17.5008C3.20724 17.5008 3.28861 17.4846 3.36454 17.4532C3.44046 17.4217 3.50945 17.3756 3.56756 17.3175L16.2501 4.63375V10.625C16.2501 10.7908 16.3159 10.9497 16.4331 11.0669C16.5503 11.1842 16.7093 11.25 16.8751 11.25C17.0408 11.25 17.1998 11.1842 17.317 11.0669C17.4342 10.9497 17.5001 10.7908 17.5001 10.625V3.125Z"
    fill="#57A203" />
</svg>
